<svg xmlns="http://www.w3.org/2000/svg" width="52" height="52" viewBox="0 0 52 52" fill="none">
    <circle cx="26" cy="26" r="26" fill="url(#paint0_linear_3803_20458)"></circle>
    <circle cx="26" cy="26" r="26" fill="url(#paint1_linear_3803_20458)"></circle>
    <path fill-rule="evenodd" clip-rule="evenodd"
          d="M36.2923 21.0301L27.8111 12.5488L25.9559 14.404L29.9583 18.4064H22.6016C18.2114 18.4064 14.6523 21.9654 14.6523 26.3557V27.6675H17.276V26.3557C17.276 23.4144 19.6604 21.0301 22.6016 21.0301H36.2923ZM15.7741 31.6413L24.2553 40.1226L26.1105 38.2674L22.1081 34.265H29.4648C33.855 34.265 37.4141 30.7059 37.4141 26.3157V25.0039H34.7904V26.3157C34.7904 29.2569 32.406 31.6413 29.4648 31.6413H15.7741Z"
          fill="white"></path>
    <defs>
        <linearGradient id="paint0_linear_3803_20458" x1="26" y1="0" x2="26" y2="52" gradientUnits="userSpaceOnUse">
            <stop stop-color="#5561FE"></stop>
            <stop offset="1" stop-color="#7A62F7"></stop>
        </linearGradient>
        <linearGradient id="paint1_linear_3803_20458" x1="-1.73333" y1="7.5657e-06" x2="54.8546" y2="3.31816"
                        gradientUnits="userSpaceOnUse">
            <stop stop-color="#2A2CBF"></stop>
            <stop offset="0.515625" stop-color="#6335FF"></stop>
            <stop offset="1" stop-color="#AA68FF"></stop>
        </linearGradient>
    </defs>
</svg>